<svg width="138" height="121" version="1.1" xmlns="http://www.w3.org/2000/svg" desc="Created with imagetracer.js version 1.2.6" ><path fill="rgb(255,249,247)" stroke="rgb(255,249,247)" stroke-width="1" opacity="0.8470588235294118" d="M 8.5 0 L 20 0.5 L 8.5 1 L 8.5 0 Z " /><path fill="rgb(255,249,247)" stroke="rgb(255,249,247)" stroke-width="1" opacity="0.8470588235294118" d="M 38.5 0 L 48 0.5 L 38.5 1 L 38.5 0 Z " /><path fill="rgb(255,249,247)" stroke="rgb(255,249,247)" stroke-width="1" opacity="0.8470588235294118" d="M 78.5 0 L 92 0.5 L 78.5 1 L 78.5 0 Z " /><path fill="rgb(255,249,247)" stroke="rgb(255,249,247)" stroke-width="1" opacity="0.8470588235294118" d="M 35.5 2 L 33.5 5 L 35.5 2 Z " /><path fill="rgb(255,249,247)" stroke="rgb(255,249,247)" stroke-width="1" opacity="0.8470588235294118" d="M 49.5 2 L 50.5 4 L 49.5 2 Z " /><path fill="rgb(255,249,247)" stroke="rgb(255,249,247)" stroke-width="1" opacity="0.8470588235294118" d="M 41.5 16 L 52 16.5 L 41.5 17 L 41.5 16 Z " /><path fill="rgb(255,249,247)" stroke="rgb(255,249,247)" stroke-width="1" opacity="0.8470588235294118" d="M 54.5 42 L 61 42.5 L 53.5 44 L 54.5 42 Z " /><path fill="rgb(255,249,247)" stroke="rgb(255,249,247)" stroke-width="1" opacity="0.8470588235294118" d="M 64.5 42 Q 70.5 40.5 72 43.5 L 70.5 43 L 64.5 43 L 64.5 42 Z " /><path fill="rgb(255,249,247)" stroke="rgb(255,249,247)" stroke-width="1" opacity="0.8470588235294118" d="M 74.5 42 L 81.5 42 L 82 44.5 L 81 44.5 Q 81.5 41.5 74.5 43 L 74.5 42 Z " /><path fill="rgb(255,249,247)" stroke="rgb(255,249,247)" stroke-width="1" opacity="0.8470588235294118" d="M 118.5 42 L 126 42.5 L 118.5 43 L 118.5 42 Z " /><path fill="rgb(255,249,247)" stroke="rgb(255,249,247)" stroke-width="1" opacity="0.8470588235294118" d="M 128.5 42 L 136 42.5 L 128.5 43 L 128.5 42 Z " /><path fill="rgb(255,249,247)" stroke="rgb(255,249,247)" stroke-width="1" opacity="0.8470588235294118" d="M 131.5 60 L 130.5 62 L 131.5 60 Z " /><path fill="rgb(255,249,247)" stroke="rgb(255,249,247)" stroke-width="1" opacity="0.8470588235294118" d="M 89.5 66 L 88.5 68 L 89.5 66 Z " /><path fill="rgb(255,249,247)" stroke="rgb(255,249,247)" stroke-width="1" opacity="0.8470588235294118" d="M 134.5 72 L 133.5 74 L 134.5 72 Z " /><path fill="rgb(255,249,247)" stroke="rgb(255,249,247)" stroke-width="1" opacity="0.8470588235294118" d="M 60.5 79 L 59.5 81 L 60.5 79 Z " /><path fill="rgb(255,249,247)" stroke="rgb(255,249,247)" stroke-width="1" opacity="0.8470588235294118" d="M 40.5 85 L 98 85.5 L 40.5 86 L 40.5 85 Z " /><path fill="rgb(255,249,247)" stroke="rgb(255,249,247)" stroke-width="1" opacity="0.8470588235294118" d="M 41.5 100 L 97 100.5 L 41.5 101 L 41.5 100 Z " /><path fill="rgb(255,250,248)" stroke="rgb(255,250,248)" stroke-width="1" opacity="1" d="M 23 0 L 30.5 0 L 31 1.5 L 24 40 L 16 39.5 L 23 0 Z " /><path fill="rgb(255,250,248)" stroke="rgb(255,250,248)" stroke-width="1" opacity="1" d="M 57 0 L 64.5 0 L 65 1.5 L 62 16 Q 66.9 17.8 65 11.5 L 67 1.5 L 68.5 0 L 75 0 L 75 2.5 L 68 40 L 61 40 L 61 34.5 L 63 24 Q 60.3 22.9 61 25.5 L 58 40 L 50 39.5 L 57 0 Z " /><path fill="rgb(255,250,248)" stroke="rgb(255,250,248)" stroke-width="1" opacity="1" d="M 7 1 L 21 1.5 Q 18.7 2.8 20 7.5 L 18.5 9 L 13 9 L 13 16 L 18 16 L 18 18.5 L 17 24 L 11 24 L 11 26.5 L 8 40 L 1 40 L 1 35.5 L 7 1 Z " /><path fill="rgb(255,250,248)" stroke="rgb(255,250,248)" stroke-width="1" opacity="1" d="M 37.5 1 L 48.5 1 L 49 2.5 Q 51.8 3.3 51 7.5 L 48.5 14 L 42 14 L 42 10.5 L 42.5 9 Q 38.3 7.7 40 12.5 L 37 25.5 L 37 32 Q 40.3 33.3 39 28.5 L 41 17 L 51.5 17 L 52 19.5 L 51 24 Q 47.3 22.5 48 25.5 L 46 35.5 L 41.5 40 L 31.5 40 L 28 36.5 L 33 5.5 L 37.5 1 Z " /><path fill="rgb(255,250,248)" stroke="rgb(255,250,248)" stroke-width="1" opacity="1" d="M 77 1 L 91.5 1 L 92 3.5 L 89.5 9 Q 86.2 7.9 87 10.5 L 82 40 L 74 40 L 74 37.5 L 79 9 Q 73.8 10.8 76 3.5 L 77 1 Z " /><path fill="rgb(255,250,248)" stroke="rgb(255,250,248)" stroke-width="1" opacity="1" d="M 54.5 43 L 61 43 L 61 47.5 Q 57.1 58.4 57 72 Q 60.3 73.3 59 68.5 L 64 43 L 71 43 L 71 48.5 L 69 54.5 L 67 72 Q 70 73.3 69 69.5 L 74 43 L 81 43 L 81 48.5 L 75 82 L 64.5 82 L 60.5 79 L 57.5 82 L 47 82 L 53 49.5 L 53 44.5 L 54.5 43 Z " /><path fill="rgb(255,250,248)" stroke="rgb(255,250,248)" stroke-width="1" opacity="1" d="M 85 43 L 98 43 L 98 48.5 L 97 51 L 91 51 L 91 54.5 L 90 58 L 95.5 58 L 96 59.5 L 95 66 Q 89.6 64.5 88 67.5 L 88 74 L 93 74 L 93 77.5 L 92 82 L 78.5 82 L 78 80.5 L 85 43 Z " /><path fill="rgb(255,250,248)" stroke="rgb(255,250,248)" stroke-width="1" opacity="1" d="M 101 43 L 114.5 43 L 115 45.5 L 114 51 L 108.5 51 L 108 52.5 L 107 58 Q 114.5 55.3 112 63.5 L 111 66 Q 106.4 64.8 105 67.5 L 104 74 L 110 74.5 Q 107.8 75.8 109 80.5 L 107.5 82 L 95.5 82 L 95 78.5 L 101 43 Z " /><path fill="rgb(255,250,248)" stroke="rgb(255,250,248)" stroke-width="1" opacity="1" d="M 118 43 L 125.5 43 L 126 44.5 L 125 45.5 L 124 56.5 L 126 55.5 L 128 43 L 136 43 L 136 45.5 L 133 60 L 130 61.5 L 132 68.5 L 131 69.5 L 130 80.5 L 128.5 82 L 122 82 L 122 77.5 L 124 69.5 Q 122.5 66.5 121 69.5 L 119 82 L 112 82 L 112 76.5 L 118 43 Z " /><path fill="rgb(255,250,248)" stroke="rgb(255,250,248)" stroke-width="1" opacity="1" d="M 40.5 63 L 47 63 L 47 67 L 38.5 67 L 3 76 L 3 87.5 L 6.5 88 L 39.5 97 L 98.5 97 L 135 88 L 135 76.5 L 133 76 L 133 74.5 L 137 73 L 138 75.5 L 138 87.5 L 135.5 91 L 100.5 100 L 37.5 100 L 5.5 92 L 1 89.5 L 0 87.5 L 0 75.5 L 1 73 L 40.5 63 Z " /><path fill="rgb(255,250,248)" stroke="rgb(255,250,248)" stroke-width="1" opacity="1" d="M 108.5 69 L 111 69.5 L 108.5 70 L 108.5 69 Z " /><path fill="rgb(255,250,248)" stroke="rgb(255,250,248)" stroke-width="1" opacity="1" d="M 37.5 86 L 100.5 86 L 113 89.5 L 103.5 92 L 98.5 90 L 39.5 90 L 31.5 92 L 25 89.5 L 37.5 86 Z " /><path fill="rgb(255,250,248)" stroke="rgb(255,250,248)" stroke-width="1" opacity="1" d="M 5.5 94 L 14 96.5 L 4 99 L 4 106.5 L 5.5 107 L 38.5 116 L 99.5 116 L 134 107 L 134 99 L 131.5 99 L 124 96.5 L 132.5 94 L 137 96.5 L 137 109.5 L 135.5 111 L 96.5 121 L 41.5 121 L 5.5 112 L 1 109.5 L 1 96.5 L 2.5 95 L 5.5 94 Z " /><path fill="rgb(0,0,0)" stroke="rgb(0,0,0)" stroke-width="1" opacity="0" d="M 0 0 L 7 0.5 L 5 6.5 L 0.5 35 L 0 0 Z " /><path fill="rgb(0,0,0)" stroke="rgb(0,0,0)" stroke-width="1" opacity="0" d="M 21.5 0 L 22 4.5 L 21 4.5 L 21.5 0 Z " /><path fill="rgb(0,0,0)" stroke="rgb(0,0,0)" stroke-width="1" opacity="0" d="M 32 0 L 37 0.5 L 33 3.5 L 27 36.5 L 30 41 L 41.5 41 L 47 35.5 L 48 25 Q 53.2 22.9 52 27.5 L 50 34.5 L 50 41 L 59 41 L 59 36.5 L 60 36.5 L 60 41 L 69 41 L 74.5 8 L 78 9 L 73 41 L 81.5 41 L 83 39.5 L 86 16.5 L 88 9 Q 94.4 11.3 92 3.5 L 93 0 L 138 0 L 138 72.5 L 136.5 72 Q 132.1 70.5 133 73.5 L 132 75.5 L 134 77.5 L 134 87 L 98.5 96 L 39.5 96 L 4 87 L 4 77.5 L 5.5 76 L 41.5 67 L 48 67 L 48 62 L 40.5 62 L 0.5 73 L 0 41 L 9 41 L 9 37.5 L 11 31.5 L 11 26.5 L 12.5 25 L 17.5 24 L 18 27.5 L 16 34.5 L 16 41 L 25 41 L 25 36.5 L 32 0 Z M 53 42 L 46 81 L 48 83 Q 58 85 62 80 L 65 83 L 75 83 L 77 78 L 81 49 L 82 48 L 82 42 L 73 42 L 73 46 L 72 42 L 63 42 L 63 46 L 62 46 L 62 42 L 53 42 Z M 84 42 L 77 82 L 79 83 L 92 83 L 93 82 L 94 75 Q 93 72 89 73 L 89 72 L 89 67 L 95 67 L 97 60 L 97 58 L 91 58 L 92 54 Q 91 50 97 52 L 99 48 L 99 42 L 84 42 Z M 101 42 L 94 80 L 95 83 L 109 83 L 110 80 L 110 73 L 105 73 L 106 69 L 107 67 L 112 67 L 113 63 L 113 58 L 108 58 L 108 52 L 114 52 L 116 46 L 116 42 L 101 42 Z M 117 42 L 111 83 L 120 83 L 120 80 L 121 80 L 121 83 L 130 83 L 133 68 L 131 63 L 134 60 L 137 42 L 129 42 L 128 43 L 127 42 L 117 42 Z M 107 68 L 107 70 L 110 71 L 112 70 L 112 68 L 107 68 Z M 38 85 L 22 90 L 32 93 L 39 91 L 100 91 L 105 93 L 115 91 L 116 90 L 101 85 L 38 85 Z " /><path fill="rgb(0,0,0)" stroke="rgb(0,0,0)" stroke-width="1" opacity="0" d="M 49.5 0 L 56 0 L 56 4.5 L 53.5 17 L 52.5 16 L 41.5 16 L 40 16.5 L 40.5 13 L 41 15 L 49.5 15 L 50 13.5 L 52 4.5 L 49.5 0 Z " /><path fill="rgb(0,0,0)" stroke="rgb(0,0,0)" stroke-width="1" opacity="0" d="M 65.5 1 L 66 5.5 L 65 5.5 L 65.5 1 Z " /><path fill="rgb(0,0,0)" stroke="rgb(0,0,0)" stroke-width="1" opacity="0" d="M 20.5 7 L 21 10.5 L 19.5 17 Q 18 13.9 13 14.5 L 15.5 9 Q 20.9 10.7 20.5 7 Z " /><path fill="rgb(0,0,0)" stroke="rgb(0,0,0)" stroke-width="1" opacity="0" d="M 64.5 7 L 65 11.5 L 64 11.5 L 64.5 7 Z " /><path fill="rgb(0,0,0)" stroke="rgb(0,0,0)" stroke-width="1" opacity="0" d="M 18.5 18 L 19 22.5 L 18 22.5 L 18.5 18 Z " /><path fill="rgb(0,0,0)" stroke="rgb(0,0,0)" stroke-width="1" opacity="0" d="M 39.5 18 L 40 22.5 L 39 22.5 L 39.5 18 Z " /><path fill="rgb(0,0,0)" stroke="rgb(0,0,0)" stroke-width="1" opacity="0" d="M 52.5 20 L 53 22.5 L 52 22.5 L 52.5 20 Z " /><path fill="rgb(0,0,0)" stroke="rgb(0,0,0)" stroke-width="1" opacity="0" d="M 38.5 24 L 39 28.5 L 38 28.5 L 38.5 24 Z " /><path fill="rgb(0,0,0)" stroke="rgb(0,0,0)" stroke-width="1" opacity="0" d="M 61.5 25 L 62 28.5 L 61 28.5 L 61.5 25 Z " /><path fill="rgb(0,0,0)" stroke="rgb(0,0,0)" stroke-width="1" opacity="0" d="M 60.5 31 L 61 34.5 L 60 34.5 L 60.5 31 Z " /><path fill="rgb(0,0,0)" stroke="rgb(0,0,0)" stroke-width="1" opacity="0" d="M 126.5 44 L 127 47.5 L 126 47.5 L 126.5 44 Z " /><path fill="rgb(0,0,0)" stroke="rgb(0,0,0)" stroke-width="1" opacity="0" d="M 61.5 47 L 62 50.5 L 61 50.5 L 61.5 47 Z " /><path fill="rgb(0,0,0)" stroke="rgb(0,0,0)" stroke-width="1" opacity="0" d="M 71.5 48 L 72 51.5 L 71 51.5 L 71.5 48 Z " /><path fill="rgb(0,0,0)" stroke="rgb(0,0,0)" stroke-width="1" opacity="0" d="M 125.5 50 L 126 53.5 L 125 53.5 L 125.5 50 Z " /><path fill="rgb(0,0,0)" stroke="rgb(0,0,0)" stroke-width="1" opacity="0" d="M 60.5 53 L 61 56.5 L 60 56.5 L 60.5 53 Z " /><path fill="rgb(0,0,0)" stroke="rgb(0,0,0)" stroke-width="1" opacity="0" d="M 70.5 54 L 71 57.5 L 70 57.5 L 70.5 54 Z " /><path fill="rgb(0,0,0)" stroke="rgb(0,0,0)" stroke-width="1" opacity="0" d="M 59.5 59 L 60 62.5 L 59 62.5 L 59.5 59 Z " /><path fill="rgb(0,0,0)" stroke="rgb(0,0,0)" stroke-width="1" opacity="0" d="M 69.5 59 L 70 63.5 L 69 63.5 L 69.5 59 Z " /><path fill="rgb(0,0,0)" stroke="rgb(0,0,0)" stroke-width="1" opacity="0" d="M 58.5 64 L 59 68.5 L 58 68.5 L 58.5 64 Z " /><path fill="rgb(0,0,0)" stroke="rgb(0,0,0)" stroke-width="1" opacity="0" d="M 68.5 65 L 69 69.5 L 68 69.5 L 68.5 65 Z " /><path fill="rgb(0,0,0)" stroke="rgb(0,0,0)" stroke-width="1" opacity="0" d="M 122.5 69 L 123 71.5 L 122 71.5 L 122.5 69 Z " /><path fill="rgb(0,0,0)" stroke="rgb(0,0,0)" stroke-width="1" opacity="0" d="M 121.5 73 L 122 77.5 L 121 77.5 L 121.5 73 Z " /><path fill="rgb(0,0,0)" stroke="rgb(0,0,0)" stroke-width="1" opacity="0" d="M 0 91 L 38.5 101 L 99.5 101 L 138 91 L 137.5 96 Q 136 92.5 129.5 94 L 122 96.5 L 133 100.5 Q 134.3 105.8 131.5 107 L 99.5 115 L 38.5 115 L 6.5 107 L 5 105.5 Q 3.8 100.3 6.5 99 L 16 96.5 L 8.5 94 L 2.5 94 L 0 95.5 L 0 91 Z " /><path fill="rgb(0,0,0)" stroke="rgb(0,0,0)" stroke-width="1" opacity="0" d="M 0.5 110 L 5.5 113 L 37 120.5 L 0 121 L 0.5 110 Z " /><path fill="rgb(0,0,0)" stroke="rgb(0,0,0)" stroke-width="1" opacity="0" d="M 137.5 110 L 138 121 L 101 120.5 L 137 112 L 137.5 110 Z " /><path fill="rgb(255,249,249)" stroke="rgb(255,249,249)" stroke-width="1" opacity="0.12549019607843137" d="M 75 0 L 77 0.5 L 75 1.5 L 75 0 Z " /><path fill="rgb(255,249,249)" stroke="rgb(255,249,249)" stroke-width="1" opacity="0.12549019607843137" d="M 49.5 1 L 50.5 3 L 49.5 1 Z " /><path fill="rgb(255,249,249)" stroke="rgb(255,249,249)" stroke-width="1" opacity="0.12549019607843137" d="M 34.5 2 L 33.5 4 L 34.5 2 Z " /><path fill="rgb(255,249,249)" stroke="rgb(255,249,249)" stroke-width="1" opacity="0.12549019607843137" d="M 21.5 5 L 20.5 7 L 21.5 5 Z " /><path fill="rgb(255,249,249)" stroke="rgb(255,249,249)" stroke-width="1" opacity="0.12549019607843137" d="M 41.5 11 L 40.5 13 L 41.5 11 Z " /><path fill="rgb(255,249,249)" stroke="rgb(255,249,249)" stroke-width="1" opacity="0.12549019607843137" d="M 13.5 15 L 18 15.5 L 13.5 16 L 13.5 15 Z " /><path fill="rgb(255,249,249)" stroke="rgb(255,249,249)" stroke-width="1" opacity="0.12549019607843137" d="M 52.5 23 L 51.5 25 L 52.5 23 Z " /><path fill="rgb(255,249,249)" stroke="rgb(255,249,249)" stroke-width="1" opacity="0.12549019607843137" d="M 61.5 29 L 60.5 31 L 61.5 29 Z " /><path fill="rgb(255,249,249)" stroke="rgb(255,249,249)" stroke-width="1" opacity="0.12549019607843137" d="M 126.5 42 L 127.5 44 Q 124.7 44.7 126.5 42 Z " /><path fill="rgb(255,249,249)" stroke="rgb(255,249,249)" stroke-width="1" opacity="0.12549019607843137" d="M 72.5 46 L 71.5 48 L 72.5 46 Z " /><path fill="rgb(255,249,249)" stroke="rgb(255,249,249)" stroke-width="1" opacity="0.12549019607843137" d="M 126.5 48 L 125.5 50 L 126.5 48 Z " /><path fill="rgb(255,249,249)" stroke="rgb(255,249,249)" stroke-width="1" opacity="0.12549019607843137" d="M 114.5 50 L 113.5 52 L 109 51.5 L 114.5 50 Z " /><path fill="rgb(255,249,249)" stroke="rgb(255,249,249)" stroke-width="1" opacity="0.12549019607843137" d="M 61.5 51 L 60.5 53 L 61.5 51 Z " /><path fill="rgb(255,249,249)" stroke="rgb(255,249,249)" stroke-width="1" opacity="0.12549019607843137" d="M 92.5 51 L 97 51.5 L 92.5 52 L 92.5 51 Z " /><path fill="rgb(255,249,249)" stroke="rgb(255,249,249)" stroke-width="1" opacity="0.12549019607843137" d="M 71.5 52 L 70.5 54 L 71.5 52 Z " /><path fill="rgb(255,249,249)" stroke="rgb(255,249,249)" stroke-width="1" opacity="0.12549019607843137" d="M 125.5 54 L 124.5 56 L 125.5 54 Z " /><path fill="rgb(255,249,249)" stroke="rgb(255,249,249)" stroke-width="1" opacity="0.12549019607843137" d="M 60.5 57 L 59.5 59 L 60.5 57 Z " /><path fill="rgb(255,249,249)" stroke="rgb(255,249,249)" stroke-width="1" opacity="0.12549019607843137" d="M 133.5 59 L 131.5 62 L 133.5 59 Z " /><path fill="rgb(255,249,249)" stroke="rgb(255,249,249)" stroke-width="1" opacity="0.12549019607843137" d="M 40.5 62 L 48 62.5 L 40.5 63 L 40.5 62 Z " /><path fill="rgb(255,249,249)" stroke="rgb(255,249,249)" stroke-width="1" opacity="0.12549019607843137" d="M 1.5 72 L 0.5 74 L 1.5 72 Z " /><path fill="rgb(255,249,249)" stroke="rgb(255,249,249)" stroke-width="1" opacity="0.12549019607843137" d="M 136.5 72 L 137.5 74 L 136.5 72 Z " /><path fill="rgb(255,249,249)" stroke="rgb(255,249,249)" stroke-width="1" opacity="0.12549019607843137" d="M 131.5 73 L 132.5 75 L 131.5 73 Z " /><path fill="rgb(255,249,249)" stroke="rgb(255,249,249)" stroke-width="1" opacity="0.12549019607843137" d="M 3.5 77 L 4 86.5 L 3 86.5 L 3.5 77 Z " /><path fill="rgb(255,249,249)" stroke="rgb(255,249,249)" stroke-width="1" opacity="0.12549019607843137" d="M 134.5 77 L 135 86.5 L 134 86.5 L 134.5 77 Z " /><path fill="rgb(255,249,249)" stroke="rgb(255,249,249)" stroke-width="1" opacity="0.12549019607843137" d="M 60.5 80 L 59.5 82 L 60.5 80 Z " /><path fill="rgb(255,249,249)" stroke="rgb(255,249,249)" stroke-width="1" opacity="0.12549019607843137" d="M 22.5 89 Q 25.5 90.5 22.5 92 L 22.5 89 Z " /><path fill="rgb(255,249,249)" stroke="rgb(255,249,249)" stroke-width="1" opacity="0.12549019607843137" d="M 115.5 89 L 115.5 92 Q 112.5 90.5 115.5 89 Z " /><path fill="rgb(255,249,249)" stroke="rgb(255,249,249)" stroke-width="1" opacity="0.12549019607843137" d="M 27.5 91 L 26.5 93 L 27.5 91 Z " /><path fill="rgb(255,249,249)" stroke="rgb(255,249,249)" stroke-width="1" opacity="0.12549019607843137" d="M 110.5 91 L 111.5 93 L 110.5 91 Z " /><path fill="rgb(255,249,249)" stroke="rgb(255,249,249)" stroke-width="1" opacity="0.12549019607843137" d="M 31.5 92 L 30.5 94 L 31.5 92 Z " /><path fill="rgb(255,249,249)" stroke="rgb(255,249,249)" stroke-width="1" opacity="0.12549019607843137" d="M 106.5 92 L 107.5 94 L 106.5 92 Z " /><path fill="rgb(255,249,249)" stroke="rgb(255,249,249)" stroke-width="1" opacity="0.12549019607843137" d="M 41.5 115 L 97 115.5 L 41.5 116 L 41.5 115 Z " /><path fill="rgb(255,249,247)" stroke="rgb(255,249,247)" stroke-width="1" opacity="0.30196078431372547" d="M 20.5 4 L 22 7.5 L 21 7.5 L 20.5 4 Z " /><path fill="rgb(255,249,247)" stroke="rgb(255,249,247)" stroke-width="1" opacity="0.30196078431372547" d="M 74 5 Q 77 4 76 7 Q 73 8 74 5 Z " /><path fill="rgb(255,249,247)" stroke="rgb(255,249,247)" stroke-width="1" opacity="0.30196078431372547" d="M 40.5 10 L 42 14 L 49 14.5 L 42.5 15 Q 38.8 13.2 40.5 10 Z " /><path fill="rgb(255,249,247)" stroke="rgb(255,249,247)" stroke-width="1" opacity="0.30196078431372547" d="M 52.5 16 L 54 18.5 L 52 19 L 52.5 16 Z " /><path fill="rgb(255,249,247)" stroke="rgb(255,249,247)" stroke-width="1" opacity="0.30196078431372547" d="M 51.5 23 L 52.5 25 L 51.5 23 Z " /><path fill="rgb(255,249,247)" stroke="rgb(255,249,247)" stroke-width="1" opacity="0.30196078431372547" d="M 60.5 28 L 62 31.5 L 61 31.5 L 60.5 28 Z " /><path fill="rgb(255,249,247)" stroke="rgb(255,249,247)" stroke-width="1" opacity="0.30196078431372547" d="M 38.5 30 L 37.5 32 L 38.5 30 Z " /><path fill="rgb(255,249,247)" stroke="rgb(255,249,247)" stroke-width="1" opacity="0.30196078431372547" d="M 43.5 38 L 42.5 40 L 43.5 38 Z " /><path fill="rgb(255,249,247)" stroke="rgb(255,249,247)" stroke-width="1" opacity="0.30196078431372547" d="M 73.5 38 L 74 40 L 82 40.5 L 74.5 41 L 73.5 38 Z " /><path fill="rgb(255,249,247)" stroke="rgb(255,249,247)" stroke-width="1" opacity="0.30196078431372547" d="M 0.5 40 L 8 40.5 L 0.5 41 L 0.5 40 Z " /><path fill="rgb(255,249,247)" stroke="rgb(255,249,247)" stroke-width="1" opacity="0.30196078431372547" d="M 16.5 40 L 24 40.5 L 16.5 41 L 16.5 40 Z " /><path fill="rgb(255,249,247)" stroke="rgb(255,249,247)" stroke-width="1" opacity="0.30196078431372547" d="M 31.5 40 L 41 40.5 L 31.5 41 L 31.5 40 Z " /><path fill="rgb(255,249,247)" stroke="rgb(255,249,247)" stroke-width="1" opacity="0.30196078431372547" d="M 71.5 45 L 73 48.5 L 72 48.5 L 71.5 45 Z " /><path fill="rgb(255,249,247)" stroke="rgb(255,249,247)" stroke-width="1" opacity="0.30196078431372547" d="M 125.5 47 L 127 50.5 L 126 50.5 L 125.5 47 Z " /><path fill="rgb(255,249,247)" stroke="rgb(255,249,247)" stroke-width="1" opacity="0.30196078431372547" d="M 60.5 50 L 62 53.5 L 61 53.5 L 60.5 50 Z " /><path fill="rgb(255,249,247)" stroke="rgb(255,249,247)" stroke-width="1" opacity="0.30196078431372547" d="M 70.5 51 L 72 54.5 L 71 54.5 L 70.5 51 Z " /><path fill="rgb(255,249,247)" stroke="rgb(255,249,247)" stroke-width="1" opacity="0.30196078431372547" d="M 124.5 53 L 126 55.5 L 124 54.5 L 124.5 53 Z " /><path fill="rgb(255,249,247)" stroke="rgb(255,249,247)" stroke-width="1" opacity="0.30196078431372547" d="M 59.5 56 L 61 59.5 L 60 59.5 L 59.5 56 Z " /><path fill="rgb(255,249,247)" stroke="rgb(255,249,247)" stroke-width="1" opacity="0.30196078431372547" d="M 58.5 62 L 60 65.5 L 59 65.5 L 58.5 62 Z " /><path fill="rgb(255,249,247)" stroke="rgb(255,249,247)" stroke-width="1" opacity="0.30196078431372547" d="M 108.5 68 L 111 68.5 L 108.5 69 L 108.5 68 Z " /><path fill="rgb(255,249,247)" stroke="rgb(255,249,247)" stroke-width="1" opacity="0.30196078431372547" d="M 88.5 73 Q 93 72 94 74.5 L 93.5 76 L 93 74 L 88.5 74 L 88.5 73 Z " /><path fill="rgb(255,249,247)" stroke="rgb(255,249,247)" stroke-width="1" opacity="0.30196078431372547" d="M 105.5 73 L 110 73.5 L 105.5 74 L 105.5 73 Z " /><path fill="rgb(255,249,247)" stroke="rgb(255,249,247)" stroke-width="1" opacity="0.30196078431372547" d="M 132.5 75 L 133.5 77 L 132.5 75 Z " /><path fill="rgb(255,249,247)" stroke="rgb(255,249,247)" stroke-width="1" opacity="0.30196078431372547" d="M 120.5 76 L 122 79.5 L 121 79.5 L 120.5 76 Z " /><path fill="rgb(255,249,247)" stroke="rgb(255,249,247)" stroke-width="1" opacity="0.30196078431372547" d="M 92.5 80 L 93 81.5 L 91.5 83 L 78.5 83 L 78.5 82 L 91.5 82 L 92.5 80 Z " /><path fill="rgb(255,249,247)" stroke="rgb(255,249,247)" stroke-width="1" opacity="0.30196078431372547" d="M 46.5 81 L 47.5 82 L 57 82.5 L 47.5 83 L 46.5 81 Z " /><path fill="rgb(255,249,247)" stroke="rgb(255,249,247)" stroke-width="1" opacity="0.30196078431372547" d="M 64.5 82 L 74 82.5 L 64.5 83 L 64.5 82 Z " /><path fill="rgb(255,249,247)" stroke="rgb(255,249,247)" stroke-width="1" opacity="0.30196078431372547" d="M 95.5 82 L 108 82.5 L 95.5 83 L 95.5 82 Z " /><path fill="rgb(255,249,247)" stroke="rgb(255,249,247)" stroke-width="1" opacity="0.30196078431372547" d="M 40.5 90 L 98 90.5 L 40.5 91 L 40.5 90 Z " /><path fill="rgb(255,249,247)" stroke="rgb(255,249,247)" stroke-width="1" opacity="0.30196078431372547" d="M 41.5 96 L 97 96.5 L 41.5 97 L 41.5 96 Z " /><path fill="rgb(255,249,247)" stroke="rgb(255,249,247)" stroke-width="1" opacity="0.30196078431372547" d="M 0.5 97 L 1 108.5 L 0 108.5 L 0.5 97 Z " /><path fill="rgb(255,249,247)" stroke="rgb(255,249,247)" stroke-width="1" opacity="0.30196078431372547" d="M 137.5 97 L 138 108.5 L 137 108.5 L 137.5 97 Z " /><path fill="rgb(255,249,247)" stroke="rgb(255,249,247)" stroke-width="1" opacity="0.5882352941176471" d="M 77.5 0 L 76.5 2 L 77.5 0 Z " /><path fill="rgb(255,249,247)" stroke="rgb(255,249,247)" stroke-width="1" opacity="0.5882352941176471" d="M 12.5 24 L 16 24.5 L 12.5 25 L 12.5 24 Z " /><path fill="rgb(255,249,247)" stroke="rgb(255,249,247)" stroke-width="1" opacity="0.5882352941176471" d="M 45.5 36 L 44.5 38 L 45.5 36 Z " /><path fill="rgb(255,249,247)" stroke="rgb(255,249,247)" stroke-width="1" opacity="0.5882352941176471" d="M 68.5 39 L 67.5 41 L 60 40.5 L 68.5 39 Z " /><path fill="rgb(255,249,247)" stroke="rgb(255,249,247)" stroke-width="1" opacity="0.5882352941176471" d="M 51.5 40 L 57 40.5 L 51.5 41 L 51.5 40 Z " /><path fill="rgb(255,249,247)" stroke="rgb(255,249,247)" stroke-width="1" opacity="0.5882352941176471" d="M 85.5 42 L 98 42.5 L 85.5 43 L 84.5 44 L 85.5 42 Z " /><path fill="rgb(255,249,247)" stroke="rgb(255,249,247)" stroke-width="1" opacity="0.5882352941176471" d="M 102.5 42 L 115 42.5 L 102.5 43 L 102.5 42 Z " /><path fill="rgb(255,249,247)" stroke="rgb(255,249,247)" stroke-width="1" opacity="0.5882352941176471" d="M 111.5 65 L 110.5 67 L 106 66.5 L 111.5 65 Z " /><path fill="rgb(255,249,247)" stroke="rgb(255,249,247)" stroke-width="1" opacity="0.5882352941176471" d="M 90.5 66 L 94 66.5 L 90.5 67 L 90.5 66 Z " /><path fill="rgb(255,249,247)" stroke="rgb(255,249,247)" stroke-width="1" opacity="0.5882352941176471" d="M 122.5 68 L 123.5 70 L 122 69.5 L 121.5 71 L 121 69.5 L 122.5 68 Z " /><path fill="rgb(255,249,247)" stroke="rgb(255,249,247)" stroke-width="1" opacity="0.5882352941176471" d="M 104.5 71 L 105 73.5 L 104 73.5 L 104.5 71 Z " /><path fill="rgb(255,249,247)" stroke="rgb(255,249,247)" stroke-width="1" opacity="0.5882352941176471" d="M 61.5 79 L 63.5 82 L 61.5 79 Z " /><path fill="rgb(255,249,247)" stroke="rgb(255,249,247)" stroke-width="1" opacity="0.5882352941176471" d="M 119.5 81 L 118.5 83 L 112 82.5 L 119.5 81 Z " /><path fill="rgb(255,249,247)" stroke="rgb(255,249,247)" stroke-width="1" opacity="0.5882352941176471" d="M 122.5 82 L 129 82.5 L 122.5 83 L 122.5 82 Z " /><path fill="rgb(255,249,247)" stroke="rgb(255,249,247)" stroke-width="1" opacity="0.5882352941176471" d="M 4.5 100 L 5 106.5 L 4 106.5 L 4.5 100 Z " /><path fill="rgb(255,249,247)" stroke="rgb(255,249,247)" stroke-width="1" opacity="0.5882352941176471" d="M 133.5 100 L 134 105.5 L 133 105.5 L 133.5 100 Z " /></svg>