<svg width="194" height="166" viewBox="0 0 194 166" fill="none" xmlns="http://www.w3.org/2000/svg">
<g clip-path="url(#clip0_883_3612)">
<path d="M150.34 93.9L150.14 95.03L155.62 96.37L156.07 93.8C155.82 93.86 155.56 93.9 155.29 93.91H150.33L150.34 93.9Z" fill="black"/>
<path d="M190.37 99.01L187.09 98.21L186.11 103.8L189.18 104.55V118.89L135.75 131.92H57.79L4.36 118.89V104.55L57.79 91.52H66.05L67.06 85.79H57.74C57.5 85.79 57.27 85.82 57.03 85.88L3.17 99.01C1.34 99.46 0 101.56 0 104.02V119.42C0 121.87 1.33 123.98 3.17 124.43L57.04 137.57C57.27 137.63 57.51 137.66 57.75 137.66H135.8C136.04 137.66 136.27 137.63 136.51 137.57L190.38 124.43C192.22 123.98 193.55 121.88 193.55 119.42V104.02C193.55 101.57 192.22 99.46 190.38 99.01H190.37Z" fill="black"/>
<path d="M190.17 129.36L186.13 128.38L171.45 131.96L186.77 135.7C186.97 135.75 187.12 135.98 187.12 136.25V145.17C187.12 145.44 186.97 145.67 186.77 145.72L135.59 158.2C135.59 158.2 135.54 158.2 135.51 158.2H58.0201C58.0201 158.2 57.9701 158.2 57.9401 158.2L6.76006 145.72C6.56006 145.67 6.41006 145.44 6.41006 145.17V136.25C6.41006 135.98 6.56006 135.75 6.76006 135.7L22.0801 131.96L7.40006 128.38L3.36006 129.36C2.03006 129.69 1.06006 131.21 1.06006 133V148.4C1.06006 150.18 2.03006 151.71 3.36006 152.04L57.2301 165.18C57.4001 165.22 57.5701 165.24 57.7401 165.24H135.79C135.96 165.24 136.13 165.22 136.3 165.18L190.17 152.04C191.5 151.72 192.47 150.19 192.47 148.4V133C192.47 131.22 191.5 129.69 190.17 129.36Z" fill="black"/>
<path d="M136.3 116.22C136.13 116.18 135.96 116.16 135.79 116.16H57.7401C57.5701 116.16 57.4001 116.18 57.2301 116.22L31.3101 122.54L45.9901 126.12L57.9401 123.21C57.9401 123.21 57.9901 123.21 58.0201 123.21H135.52C135.52 123.21 135.57 123.21 135.6 123.21L147.55 126.12L162.23 122.54L136.31 116.22H136.3Z" fill="black"/>
<path d="M114.8 57.84C114.97 58.05 115.03 58.32 114.97 58.58L105.68 111.26C105.56 111.85 105.05 112.29 104.44 112.31H90.0699C89.8099 112.31 89.5499 112.2 89.3799 112L86.7399 108.79C86.5399 108.59 86.2799 108.48 85.9999 108.48C85.7199 108.48 85.4499 108.59 85.2599 108.79L81.4899 112C81.2699 112.19 80.9899 112.3 80.6899 112.31H66.3199C66.0499 112.31 65.7999 112.2 65.6299 112C65.4599 111.79 65.3999 111.52 65.4599 111.26L74.7499 58.58C74.8699 57.99 75.3799 57.55 75.9899 57.53H85.7199C85.9899 57.53 86.2399 57.64 86.4099 57.84C86.5799 58.04 86.6399 58.32 86.5799 58.58L79.7899 97.06C79.6299 98 80.6799 98.47 81.4499 97.81L81.7599 97.55C81.9899 97.36 82.1399 97.1 82.1999 96.81L88.9399 58.59C89.0599 58 89.5699 57.56 90.1799 57.54H99.9099C100.18 57.54 100.43 57.65 100.6 57.85C100.77 58.06 100.83 58.33 100.77 58.59L94.0299 96.81C93.9799 97.07 94.0399 97.34 94.2099 97.55L94.4299 97.81C94.9799 98.47 96.1899 98 96.3599 97.06L103.15 58.58C103.27 57.99 103.78 57.55 104.39 57.53H114.12C114.39 57.53 114.64 57.64 114.81 57.84H114.8Z" fill="black"/>
<path d="M138.48 58.24C138.65 58.45 138.71 58.72 138.65 58.98L136.93 68.71C136.81 69.3 136.3 69.74 135.69 69.76H129.51C128.9 69.78 128.39 70.22 128.27 70.81L126.97 78.17C126.91 78.43 126.97 78.7001 127.14 78.91C127.31 79.12 127.57 79.23 127.83 79.22H134.01C134.28 79.22 134.53 79.33 134.7 79.53C134.87 79.73 134.93 80.01 134.87 80.27L133.15 90C133.03 90.59 132.52 91.03 131.91 91.05H125.73C125.12 91.07 124.61 91.51 124.49 92.1L123.15 99.69C123.09 99.95 123.15 100.22 123.32 100.43C123.49 100.64 123.75 100.75 124.01 100.74H130.19C130.46 100.74 130.71 100.85 130.88 101.05C131.05 101.26 131.11 101.53 131.05 101.79L129.33 111.52C129.21 112.11 128.7 112.55 128.09 112.57H110.08C109.81 112.57 109.56 112.46 109.39 112.26C109.22 112.05 109.16 111.78 109.22 111.52L118.49 58.97C118.61 58.38 119.12 57.94 119.73 57.92H137.74C138.01 57.92 138.26 58.03 138.43 58.23L138.48 58.24Z" fill="black"/>
<path d="M161.73 58.24C161.9 58.45 161.96 58.72 161.9 58.98L160.18 68.71C160.06 69.3 159.55 69.74 158.94 69.76H152.76C152.15 69.78 151.64 70.22 151.52 70.81L150.22 78.17C150.16 78.43 150.22 78.7001 150.39 78.91C150.56 79.12 150.82 79.23 151.08 79.22H157.26C157.53 79.22 157.78 79.33 157.95 79.53C158.12 79.73 158.18 80.01 158.12 80.27L156.4 90C156.28 90.59 155.77 91.03 155.16 91.05H148.98C148.37 91.07 147.86 91.51 147.74 92.1L146.4 99.69C146.34 99.95 146.4 100.22 146.57 100.43C146.74 100.64 147 100.75 147.26 100.74H153.44C153.71 100.74 153.96 100.85 154.13 101.05C154.3 101.26 154.36 101.53 154.3 101.79L152.58 111.52C152.46 112.11 151.95 112.55 151.34 112.57H133.33C133.06 112.57 132.81 112.46 132.64 112.26C132.47 112.05 132.41 111.78 132.47 111.52L141.74 58.97C141.86 58.38 142.37 57.94 142.98 57.92H160.99C161.26 57.92 161.51 58.03 161.68 58.23L161.73 58.24Z" fill="black"/>
<path d="M191.03 57.8401C191.2 58.0501 191.27 58.3201 191.2 58.5801L187.35 80.4301C187.29 80.7201 187.14 80.9801 186.91 81.1701L183.14 84.3801C182.67 84.7201 182.55 85.3801 182.88 85.8701L185.52 89.0701C185.69 89.2801 185.75 89.5501 185.7 89.8101L181.85 111.66C181.73 112.25 181.22 112.69 180.61 112.71H170.88C170.61 112.71 170.36 112.6 170.19 112.4C170.02 112.2 169.96 111.92 170.02 111.66L173.01 94.7201C173.06 94.4601 173 94.1901 172.83 93.9801L172.61 93.7201C172.06 93.0601 170.85 93.5301 170.68 94.4601L167.65 111.67C167.53 112.26 167.02 112.7 166.41 112.72H156.68C156.41 112.72 156.16 112.61 155.99 112.41C155.82 112.2 155.76 111.93 155.82 111.67L165.18 58.5901C165.3 58.0001 165.81 57.5601 166.42 57.5401H176.15C176.42 57.5301 176.67 57.6401 176.84 57.8501C177.01 58.0601 177.07 58.3301 177.01 58.5901L173.98 75.8001C173.81 76.7401 174.87 77.2101 175.64 76.5401L175.95 76.2801C176.18 76.0901 176.33 75.8301 176.39 75.5401L179.38 58.6001C179.5 58.0101 180.01 57.5701 180.62 57.5501H190.35C190.62 57.5401 190.88 57.6501 191.05 57.8601L191.03 57.8401Z" fill="black"/>
<path d="M29.3 0.710024C29.47 0.920024 29.53 1.19002 29.47 1.45002L27.75 11.18C27.63 11.77 27.12 12.21 26.51 12.23H20.59C19.98 12.25 19.47 12.69 19.35 13.28L18.05 20.64C17.99 20.9 18.05 21.17 18.22 21.38C18.39 21.59 18.65 21.7 18.91 21.69H24.83C25.1 21.69 25.35 21.8 25.52 22C25.69 22.21 25.75 22.48 25.69 22.74L23.97 32.47C23.85 33.06 23.34 33.5 22.73 33.52H16.81C16.2 33.54 15.69 33.98 15.57 34.57L12.12 54.12C12 54.71 11.49 55.15 10.88 55.17H1.19003C0.920032 55.18 0.670032 55.07 0.500032 54.86C0.330032 54.65 0.270032 54.38 0.330032 54.12L9.62003 1.45002C9.74003 0.860025 10.25 0.420024 10.86 0.400024H28.61C28.88 0.400024 29.13 0.510024 29.3 0.710024Z" fill="black"/>
<path d="M43.53 0.31C43.7 0.52 43.76 0.79 43.7 1.05L34.34 54.13C34.22 54.72 33.71 55.16 33.1 55.18H23.37C23.1 55.19 22.85 55.08 22.68 54.87C22.51 54.66 22.45 54.39 22.51 54.13L31.87 1.05C31.99 0.46 32.5 0.02 33.11 0H42.84C43.11 0 43.36 0.11 43.53 0.31Z" fill="black"/>
<path d="M73.4701 22.29C73.6401 22.5 73.7001 22.77 73.6401 23.03L71.9201 32.76C71.8001 33.35 71.2901 33.79 70.6801 33.81H68.4501C67.8401 33.83 67.3301 34.27 67.2101 34.86L64.7301 48.91C64.6701 49.2 64.5201 49.46 64.2901 49.65L58.3101 54.74C58.0901 54.93 57.8101 55.04 57.5101 55.05H43.7501C43.4901 55.05 43.2301 54.94 43.0601 54.74L38.8701 49.65C38.7001 49.44 38.6401 49.17 38.6901 48.91L46.1601 6.53001C46.2201 6.24002 46.3701 5.98001 46.6001 5.79001L52.5801 0.700015C52.8001 0.510015 53.0801 0.400015 53.3801 0.390015H67.1401C67.4101 0.390015 67.6601 0.500015 67.8301 0.700015L72.0201 5.79001C72.1901 6.00001 72.2501 6.27001 72.2001 6.53001L70.1101 18.39C69.9901 18.98 69.4801 19.42 68.8701 19.44H59.1401C58.8701 19.44 58.6201 19.33 58.4501 19.13C58.2801 18.92 58.2201 18.65 58.2801 18.39L59.1801 13.28C59.2401 13.02 59.1801 12.75 59.0101 12.54C58.8401 12.33 58.5801 12.22 58.3201 12.23H58.0601C57.4501 12.25 56.9401 12.69 56.8201 13.28L51.7301 42.16C51.6701 42.42 51.7301 42.69 51.9001 42.9C52.0701 43.11 52.3301 43.22 52.5901 43.21H52.8501C53.4601 43.19 53.9701 42.75 54.0901 42.16L57.4701 23.02C57.5901 22.43 58.1001 21.99 58.7101 21.97H72.7801C73.0501 21.97 73.3001 22.08 73.4701 22.28V22.29Z" fill="black"/>
<path d="M105.4 0.31C105.57 0.52 105.63 0.79 105.57 1.05L96.1601 54.4C96.0401 54.99 95.5301 55.43 94.9201 55.45H85.1901C84.9201 55.45 84.6701 55.34 84.5001 55.14C84.3301 54.93 84.2701 54.66 84.3301 54.4L87.8301 34.58C87.8901 34.32 87.8301 34.05 87.6601 33.84C87.4901 33.63 87.2301 33.52 86.9701 33.53H86.7101C86.1001 33.55 85.5901 33.99 85.4701 34.58L82.0101 54.19C81.8901 54.79 81.3801 55.22 80.7701 55.24H71.0401C70.7701 55.24 70.5201 55.13 70.3501 54.93C70.1801 54.72 70.1201 54.45 70.1801 54.19L79.5401 1.05C79.6601 0.46 80.1701 0.02 80.7801 0H90.5101C90.7801 0 91.0301 0.11 91.2001 0.31C91.3701 0.51 91.4301 0.79 91.3701 1.05L87.9201 20.64C87.8601 20.9 87.9201 21.17 88.0901 21.38C88.2601 21.59 88.5201 21.7 88.7801 21.69H89.0401C89.6501 21.67 90.1601 21.23 90.2801 20.64L93.7401 1.05C93.8601 0.46 94.3701 0.02 94.9801 0H104.71C104.98 0 105.23 0.11 105.4 0.31Z" fill="black"/>
<path d="M129.44 0.710024C129.61 0.920024 129.67 1.19002 129.61 1.45002L127.89 11.18C127.77 11.77 127.26 12.21 126.65 12.23H123.49C122.88 12.25 122.37 12.69 122.25 13.28L115.05 54.13C114.93 54.72 114.42 55.16 113.81 55.18H104.08C103.81 55.18 103.56 55.07 103.39 54.87C103.22 54.66 103.16 54.39 103.22 54.13L110.42 13.28C110.48 13.02 110.42 12.75 110.25 12.54C110.08 12.33 109.82 12.22 109.56 12.23H106.4C106.13 12.23 105.88 12.12 105.71 11.92C105.54 11.71 105.48 11.44 105.54 11.18L107.26 1.45002C107.38 0.860025 107.89 0.420024 108.5 0.400024H128.76C129.03 0.400024 129.28 0.510024 129.45 0.710024H129.44Z" fill="black"/>
</g>
<defs>
<clipPath id="clip0_883_3612">
<rect width="193.53" height="165.23" fill="white"/>
</clipPath>
</defs>
</svg>
