<svg width="24" height="24" viewBox="0 0 24 24" fill="none" xmlns="http://www.w3.org/2000/svg">
<path d="M12 13C13.1046 13 14 12.1046 14 11C14 9.89543 13.1046 9 12 9C10.8954 9 10 9.89543 10 11C10 12.1046 10.8954 13 12 13Z" stroke="#FFFAF8" stroke-width="1.7" stroke-linecap="round" stroke-linejoin="round"/>
<path d="M17 19V18C17 17.4696 16.7366 16.9609 16.2678 16.5858C15.7989 16.2107 15.163 16 14.5 16H9.5C8.83696 16 8.20107 16.2107 7.73223 16.5858C7.26339 16.9609 7 17.4696 7 18V19" stroke="#FFFAF8" stroke-width="1.7" stroke-linecap="round" stroke-linejoin="round"/>
<path d="M12 2L19.0711 4.92893L22 12L19.0711 19.0711L12 22L4.92893 19.0711L2 12L4.92893 4.92893L12 2Z" stroke="#FFFAF8" stroke-width="1.7"/>
</svg>
