<svg width="24" height="24" viewBox="0 0 24 24" fill="none" xmlns="http://www.w3.org/2000/svg">
<path d="M8.40909 13.5H7.59091C7.5407 13.5 7.5 13.556 7.5 13.625V14.375C7.5 14.444 7.5407 14.5 7.59091 14.5H8.40909C8.4593 14.5 8.5 14.444 8.5 14.375V13.625C8.5 13.556 8.4593 13.5 8.40909 13.5Z" fill="#FFFAF8"/>
<path d="M12.4091 13.5H11.5909C11.5407 13.5 11.5 13.556 11.5 13.625V14.375C11.5 14.444 11.5407 14.5 11.5909 14.5H12.4091C12.4593 14.5 12.5 14.444 12.5 14.375V13.625C12.5 13.556 12.4593 13.5 12.4091 13.5Z" fill="#FFFAF8"/>
<path d="M16.4091 13.5H15.5909C15.5407 13.5 15.5 13.556 15.5 13.625V14.375C15.5 14.444 15.5407 14.5 15.5909 14.5H16.4091C16.4593 14.5 16.5 14.444 16.5 14.375V13.625C16.5 13.556 16.4593 13.5 16.4091 13.5Z" fill="#FFFAF8"/>
<path d="M8.40909 16.5H7.59091C7.5407 16.5 7.5 16.556 7.5 16.625V17.375C7.5 17.444 7.5407 17.5 7.59091 17.5H8.40909C8.4593 17.5 8.5 17.444 8.5 17.375V16.625C8.5 16.556 8.4593 16.5 8.40909 16.5Z" fill="#FFFAF8"/>
<path d="M12.4091 16.5H11.5909C11.5407 16.5 11.5 16.556 11.5 16.625V17.375C11.5 17.444 11.5407 17.5 11.5909 17.5H12.4091C12.4593 17.5 12.5 17.444 12.5 17.375V16.625C12.5 16.556 12.4593 16.5 12.4091 16.5Z" fill="#FFFAF8"/>
<path d="M16.4091 16.5H15.5909C15.5407 16.5 15.5 16.556 15.5 16.625V17.375C15.5 17.444 15.5407 17.5 15.5909 17.5H16.4091C16.4593 17.5 16.5 17.444 16.5 17.375V16.625C16.5 16.556 16.4593 16.5 16.4091 16.5Z" fill="#FFFAF8"/>
<path d="M19.3636 5H4.63636C3.73262 5 3 5.83947 3 6.875V18.125C3 19.1605 3.73262 20 4.63636 20H19.3636C20.2674 20 21 19.1605 21 18.125V6.875C21 5.83947 20.2674 5 19.3636 5Z" stroke="#FFFAF8" stroke-width="1.7" stroke-linecap="round" stroke-linejoin="round"/>
<path d="M3 11H21" stroke="#FFFAF8" stroke-width="1.7" stroke-linecap="round" stroke-linejoin="round"/>
<path d="M7 3L7 7" stroke="#FFFAF8" stroke-width="1.7" stroke-linecap="round" stroke-linejoin="round"/>
<path d="M12 3L12 7" stroke="#FFFAF8" stroke-width="1.7" stroke-linecap="round" stroke-linejoin="round"/>
<path d="M17 3L17 7" stroke="#FFFAF8" stroke-width="1.7" stroke-linecap="round" stroke-linejoin="round"/>
</svg>
