<svg width="21" height="22" viewBox="0 0 21 22" fill="none" xmlns="http://www.w3.org/2000/svg">
<rect x="0.849609" y="0.850098" width="13.0766" height="16.5637" rx="2" fill="#198CFF" stroke="#198CFF" stroke-width="1.7"/>
<mask id="path-2-inside-1_2938_9556" fill="white">
<path d="M17.79 3.50732C19.3335 3.81535 20.3361 5.31548 20.0283 6.85889L17.5693 19.1802C17.2611 20.7236 15.7593 21.7255 14.2158 21.4175L6.20605 19.8188C5.29613 19.6373 4.57722 19.0395 4.20117 18.2642H11.9258C13.4998 18.2642 14.7763 16.9876 14.7764 15.4136V2.90576L17.79 3.50732Z"/>
</mask>
<path d="M17.79 3.50732C19.3335 3.81535 20.3361 5.31548 20.0283 6.85889L17.5693 19.1802C17.2611 20.7236 15.7593 21.7255 14.2158 21.4175L6.20605 19.8188C5.29613 19.6373 4.57722 19.0395 4.20117 18.2642H11.9258C13.4998 18.2642 14.7763 16.9876 14.7764 15.4136V2.90576L17.79 3.50732Z" fill="#198CFF"/>
<path d="M17.79 3.50732L17.5943 4.48798L17.5943 4.48799L17.79 3.50732ZM20.0283 6.85889L21.009 7.0546L21.009 7.05444L20.0283 6.85889ZM17.5693 19.1802L18.55 19.376L18.55 19.3759L17.5693 19.1802ZM14.2158 21.4175L14.0201 22.3981L14.0201 22.3981L14.2158 21.4175ZM6.20605 19.8188L6.40178 18.8382L6.40177 18.8382L6.20605 19.8188ZM4.20117 18.2642V17.2642H2.60472L3.30142 18.7006L4.20117 18.2642ZM14.7764 15.4136L15.7764 15.4136V15.4136H14.7764ZM14.7764 2.90576L14.9721 1.92511L13.7764 1.68642V2.90576H14.7764ZM17.79 3.50732L17.5943 4.48799C18.597 4.68809 19.2472 5.66227 19.0476 6.66333L20.0283 6.85889L21.009 7.05444C21.4249 4.96869 20.0699 2.9426 17.9858 2.52666L17.79 3.50732ZM20.0283 6.85889L19.0477 6.66317L16.5887 18.9845L17.5693 19.1802L18.55 19.3759L21.009 7.0546L20.0283 6.85889ZM17.5693 19.1802L16.5887 18.9844C16.3887 19.9861 15.4135 20.6368 14.4115 20.4368L14.2158 21.4175L14.0201 22.3981C16.1051 22.8142 18.1336 21.461 18.55 19.376L17.5693 19.1802ZM14.2158 21.4175L14.4115 20.4368L6.40178 18.8382L6.20605 19.8188L6.01033 20.7995L14.0201 22.3981L14.2158 21.4175ZM6.20605 19.8188L6.40177 18.8382C5.81418 18.7209 5.3474 18.3359 5.10092 17.8278L4.20117 18.2642L3.30142 18.7006C3.80704 19.743 4.77808 20.5536 6.01034 20.7995L6.20605 19.8188ZM4.20117 18.2642V19.2642H11.9258V18.2642V17.2642H4.20117V18.2642ZM11.9258 18.2642V19.2642C14.0521 19.2642 15.7763 17.5398 15.7764 15.4136L14.7764 15.4136L13.7764 15.4136C13.7763 16.4353 12.9475 17.2642 11.9258 17.2642V18.2642ZM14.7764 15.4136H15.7764V2.90576H14.7764H13.7764V15.4136H14.7764ZM14.7764 2.90576L14.5806 3.88642L17.5943 4.48798L17.79 3.50732L17.9858 2.52667L14.9721 1.92511L14.7764 2.90576Z" fill="#101011" mask="url(#path-2-inside-1_2938_9556)"/>
<path d="M5.20801 7.08665C5.20801 6.04964 6.18377 5.20898 7.38744 5.20898C8.5911 5.20898 9.56686 6.04964 9.56686 7.08665C9.56686 7.49459 9.41586 7.87216 9.15937 8.18011C8.45248 9.02886 7.38744 9.85974 7.38744 10.9643V11.3114" stroke="#101011" stroke-width="1.7" stroke-linecap="round"/>
<mask id="path-5-inside-2_2938_9556" fill="white">
<ellipse cx="7.51941" cy="13.9267" rx="0.87" ry="0.871771"/>
</mask>
<ellipse cx="7.51941" cy="13.9267" rx="0.87" ry="0.871771" fill="#101011"/>
<path d="M8.38941 13.9267H6.68941C6.68941 13.4725 7.05776 13.0985 7.51941 13.0985V14.7985V16.4985C8.94204 16.4985 10.0894 15.3438 10.0894 13.9267H8.38941ZM7.51941 14.7985V13.0985C7.98107 13.0985 8.34941 13.4725 8.34941 13.9267H6.64941H4.94941C4.94941 15.3438 6.09678 16.4985 7.51941 16.4985V14.7985ZM6.64941 13.9267H8.34941C8.34941 14.3809 7.98107 14.7549 7.51941 14.7549V13.0549V11.3549C6.09678 11.3549 4.94941 12.5096 4.94941 13.9267H6.64941ZM7.51941 13.0549V14.7549C7.05776 14.7549 6.68941 14.3809 6.68941 13.9267H8.38941H10.0894C10.0894 12.5096 8.94204 11.3549 7.51941 11.3549V13.0549Z" fill="#101011" mask="url(#path-5-inside-2_2938_9556)"/>
</svg>
