<svg width="24" height="24" viewBox="0 0 24 24" fill="none" xmlns="http://www.w3.org/2000/svg">
<rect x="9.80298" y="3.50891" width="12.1681" height="16.5637" rx="2" transform="rotate(11.2863 9.80298 3.50891)" stroke="#101011" stroke-width="1.7"/>
<rect x="3" y="2" width="13.0766" height="16.5637" rx="2" fill="#FFFAF8" stroke="#101011" stroke-width="1.7"/>
<path d="M7.35889 8.23643C7.35889 7.19942 8.33465 6.35876 9.53831 6.35876C10.742 6.35876 11.7177 7.19942 11.7177 8.23643C11.7177 8.64437 11.5667 9.02194 11.3103 9.32989C10.6034 10.1786 9.53831 11.0095 9.53831 12.1141V12.4612" stroke="#101011" stroke-width="1.7" stroke-linecap="round"/>
<mask id="path-4-inside-1_2938_9574" fill="white">
<ellipse cx="9.67005" cy="15.0766" rx="0.87" ry="0.871771"/>
</mask>
<ellipse cx="9.67005" cy="15.0766" rx="0.87" ry="0.871771" fill="#101011"/>
<path d="M10.54 15.0766H8.84005C8.84005 14.6224 9.20839 14.2484 9.67005 14.2484V15.9484V17.6484C11.0927 17.6484 12.24 16.4937 12.24 15.0766H10.54ZM9.67005 15.9484V14.2484C10.1317 14.2484 10.5 14.6224 10.5 15.0766H8.80005H7.10005C7.10005 16.4937 8.24742 17.6484 9.67005 17.6484V15.9484ZM8.80005 15.0766H10.5C10.5 15.5308 10.1317 15.9048 9.67005 15.9048V14.2048V12.5048C8.24742 12.5048 7.10005 13.6595 7.10005 15.0766H8.80005ZM9.67005 14.2048V15.9048C9.20839 15.9048 8.84005 15.5308 8.84005 15.0766H10.54H12.24C12.24 13.6595 11.0927 12.5048 9.67005 12.5048V14.2048Z" fill="#101011" mask="url(#path-4-inside-1_2938_9574)"/>
</svg>
