<svg width="402" height="165" viewBox="0 0 402 165" fill="none" xmlns="http://www.w3.org/2000/svg">
<path d="M285.079 3.94116H282.451V64.3725H285.079V3.94116Z" fill="#313233"/>
<path d="M120.627 3.94116H118V64.3725H120.627V3.94116Z" fill="#313233"/>
<path d="M55.3516 91.0779L11.9707 101.729C11.5509 101.835 11.2364 102.322 11.2363 102.892V121.755C11.2363 122.325 11.5509 122.812 11.9707 122.918L119.46 149.307H282.54L390.029 122.918C390.449 122.812 390.764 122.325 390.764 121.755H390.785V102.892C390.785 102.321 390.47 101.835 390.05 101.729L346.715 91.0896L377.654 83.5515L397.17 88.3445C399.963 89.0425 402 92.2772 402 96.0408V128.606C402 132.391 399.963 135.627 397.17 136.303L284.031 164.089C283.674 164.173 283.317 164.216 282.96 164.216H119.039C118.682 164.216 118.326 164.173 117.969 164.089L4.83008 136.303C2.03701 135.606 9.40861e-05 132.37 0 128.606V96.0408C0.000144958 92.256 2.03715 89.0425 4.83008 88.3445L24.3926 83.5398L55.3516 91.0779ZM282.96 60.4314C283.317 60.4314 283.674 60.4738 284.031 60.5583L352.552 77.3865L321.604 84.9246L282.562 75.3396H119.46L80.3955 84.9294L49.4375 77.3884L117.969 60.5583C118.326 60.4738 118.682 60.4314 119.039 60.4314H282.96Z" fill="#313233"/>
<path d="M282.96 103.784H119.04C118.683 103.784 118.325 103.742 117.968 103.657L4.83047 75.8717C2.0372 75.1738 0 71.9597 0 68.1745V35.6098C0 31.8458 2.0372 28.6105 4.83047 27.9126L117.968 0.126876C118.325 0.042292 118.683 0 119.04 0H282.96C283.317 0 283.675 0.042292 284.032 0.126876L397.17 27.9126C399.963 28.5893 402 31.8246 402 35.6098V68.1745C402 71.9385 399.963 75.1738 397.17 75.8717L284.032 103.657C283.675 103.742 283.317 103.784 282.96 103.784ZM119.04 6.23805C119.04 6.23805 118.893 6.23805 118.83 6.2592L5.69155 34.045C5.1245 34.193 4.70446 34.8485 4.70446 35.6098V68.1745C4.70446 68.9358 5.1245 69.6125 5.69155 69.7393L118.83 97.5251C118.83 97.5251 118.977 97.5463 119.04 97.5463H282.96C282.96 97.5463 283.107 97.5462 283.191 97.5251L396.329 69.7393C396.897 69.5913 397.317 68.9358 397.317 68.1745V35.6098C397.317 34.8485 396.897 34.1719 396.329 34.045L283.191 6.2592C283.191 6.2592 283.044 6.23805 282.96 6.23805H119.04Z" fill="#313233"/>
<path d="M285.079 99.8431H282.451V156.333H285.079V99.8431Z" fill="#313233"/>
<path d="M120.627 99.8431H118V156.333H120.627V99.8431Z" fill="#313233"/>
</svg>
